<?xml version="1.0" encoding="utf-8"?>
<!-- Generator: Adobe Illustrator 17.0.0, SVG Export Plug-In . SVG Version: 6.00 Build 0)  -->
<!DOCTYPE svg PUBLIC "-//W3C//DTD SVG 1.1//EN" "http://www.w3.org/Graphics/SVG/1.1/DTD/svg11.dtd">
<svg version="1.1" id="Layer_1" xmlns="http://www.w3.org/2000/svg" xmlns:xlink="http://www.w3.org/1999/xlink" x="0px" y="0px"
	 width="1170px" height="397px" viewBox="0 0 1170 397" enable-background="new 0 0 1170 397" xml:space="preserve">
<g opacity="0.3">
	<g>
		<polyline fill="none" stroke="#B700C2" stroke-width="2" stroke-miterlimit="10" points="12.799,44.264 12.799,35.442 
			26.21,35.442 26.21,25.723 38.224,25.723 38.224,18.848 		"/>
		<polyline fill="none" stroke="#B700C2" stroke-width="2" stroke-miterlimit="10" points="12.799,110.151 12.799,101.329 
			26.21,101.329 26.21,91.61 38.224,91.61 38.224,84.735 		"/>
		<polyline fill="none" stroke="#B700C2" stroke-width="2" stroke-miterlimit="10" points="12.799,176.898 12.799,168.076 
			26.21,168.076 26.21,158.357 38.224,158.357 38.224,151.482 		"/>
		<polyline fill="none" stroke="#B700C2" stroke-width="2" stroke-miterlimit="10" points="12.799,243.565 12.799,234.742 
			26.21,234.742 26.21,225.024 38.224,225.024 38.224,218.149 		"/>
		<polyline fill="none" stroke="#B700C2" stroke-width="2" stroke-miterlimit="10" points="12.799,309.452 12.799,300.629 
			26.21,300.629 26.21,290.911 38.224,290.911 38.224,284.036 		"/>
		<polyline fill="none" stroke="#B700C2" stroke-width="2" stroke-miterlimit="10" points="12.799,376.199 12.799,367.376 
			26.21,367.376 26.21,357.658 38.224,357.658 38.224,350.783 		"/>
	</g>
	<g>
		<polyline fill="none" stroke="#B700C2" stroke-width="2" stroke-miterlimit="10" points="87.402,44.264 87.402,35.442 
			100.814,35.442 100.814,25.723 112.827,25.723 112.827,18.848 		"/>
		<polyline fill="none" stroke="#B700C2" stroke-width="2" stroke-miterlimit="10" points="87.402,110.151 87.402,101.329 
			100.814,101.329 100.814,91.61 112.827,91.61 112.827,84.735 		"/>
		<polyline fill="none" stroke="#B700C2" stroke-width="2" stroke-miterlimit="10" points="87.402,176.898 87.402,168.076 
			100.814,168.076 100.814,158.357 112.827,158.357 112.827,151.482 		"/>
		<polyline fill="none" stroke="#B700C2" stroke-width="2" stroke-miterlimit="10" points="87.402,243.565 87.402,234.742 
			100.814,234.742 100.814,225.024 112.827,225.024 112.827,218.149 		"/>
		<polyline fill="none" stroke="#B700C2" stroke-width="2" stroke-miterlimit="10" points="87.402,309.452 87.402,300.629 
			100.814,300.629 100.814,290.911 112.827,290.911 112.827,284.036 		"/>
		<polyline fill="none" stroke="#B700C2" stroke-width="2" stroke-miterlimit="10" points="87.402,376.199 87.402,367.376 
			100.814,367.376 100.814,357.658 112.827,357.658 112.827,350.783 		"/>
	</g>
	<g>
		<polyline fill="none" stroke="#B700C2" stroke-width="2" stroke-miterlimit="10" points="162.006,44.264 162.006,35.442 
			175.417,35.442 175.417,25.723 187.431,25.723 187.431,18.848 		"/>
		<polyline fill="none" stroke="#B700C2" stroke-width="2" stroke-miterlimit="10" points="162.006,110.151 162.006,101.329 
			175.417,101.329 175.417,91.61 187.431,91.61 187.431,84.735 		"/>
		<polyline fill="none" stroke="#B700C2" stroke-width="2" stroke-miterlimit="10" points="162.006,176.898 162.006,168.076 
			175.417,168.076 175.417,158.357 187.431,158.357 187.431,151.482 		"/>
		<polyline fill="none" stroke="#B700C2" stroke-width="2" stroke-miterlimit="10" points="162.006,243.565 162.006,234.742 
			175.417,234.742 175.417,225.024 187.431,225.024 187.431,218.149 		"/>
		<polyline fill="none" stroke="#B700C2" stroke-width="2" stroke-miterlimit="10" points="162.006,309.452 162.006,300.629 
			175.417,300.629 175.417,290.911 187.431,290.911 187.431,284.036 		"/>
		<polyline fill="none" stroke="#B700C2" stroke-width="2" stroke-miterlimit="10" points="162.006,376.199 162.006,367.376 
			175.417,367.376 175.417,357.658 187.431,357.658 187.431,350.783 		"/>
	</g>
	<g>
		<polyline fill="none" stroke="#B700C2" stroke-width="2" stroke-miterlimit="10" points="236.609,44.264 236.609,35.442 
			250.02,35.442 250.02,25.723 262.034,25.723 262.034,18.848 		"/>
		<polyline fill="none" stroke="#B700C2" stroke-width="2" stroke-miterlimit="10" points="236.609,110.151 236.609,101.329 
			250.02,101.329 250.02,91.61 262.034,91.61 262.034,84.735 		"/>
		<polyline fill="none" stroke="#B700C2" stroke-width="2" stroke-miterlimit="10" points="236.609,176.898 236.609,168.076 
			250.02,168.076 250.02,158.357 262.034,158.357 262.034,151.482 		"/>
		<polyline fill="none" stroke="#B700C2" stroke-width="2" stroke-miterlimit="10" points="236.609,243.565 236.609,234.742 
			250.02,234.742 250.02,225.024 262.034,225.024 262.034,218.149 		"/>
		<polyline fill="none" stroke="#B700C2" stroke-width="2" stroke-miterlimit="10" points="236.609,309.452 236.609,300.629 
			250.02,300.629 250.02,290.911 262.034,290.911 262.034,284.036 		"/>
		<polyline fill="none" stroke="#B700C2" stroke-width="2" stroke-miterlimit="10" points="236.609,376.199 236.609,367.376 
			250.02,367.376 250.02,357.658 262.034,357.658 262.034,350.783 		"/>
	</g>
	<g>
		<polyline fill="none" stroke="#B700C2" stroke-width="2" stroke-miterlimit="10" points="311.213,44.264 311.213,35.442 
			324.624,35.442 324.624,25.723 336.637,25.723 336.637,18.848 		"/>
		<polyline fill="none" stroke="#B700C2" stroke-width="2" stroke-miterlimit="10" points="311.213,110.151 311.213,101.329 
			324.624,101.329 324.624,91.61 336.637,91.61 336.637,84.735 		"/>
		<polyline fill="none" stroke="#B700C2" stroke-width="2" stroke-miterlimit="10" points="311.213,176.898 311.213,168.076 
			324.624,168.076 324.624,158.357 336.637,158.357 336.637,151.482 		"/>
		<polyline fill="none" stroke="#B700C2" stroke-width="2" stroke-miterlimit="10" points="311.213,243.565 311.213,234.742 
			324.624,234.742 324.624,225.024 336.637,225.024 336.637,218.149 		"/>
		<polyline fill="none" stroke="#B700C2" stroke-width="2" stroke-miterlimit="10" points="311.213,309.452 311.213,300.629 
			324.624,300.629 324.624,290.911 336.637,290.911 336.637,284.036 		"/>
		<polyline fill="none" stroke="#B700C2" stroke-width="2" stroke-miterlimit="10" points="311.213,376.199 311.213,367.376 
			324.624,367.376 324.624,357.658 336.637,357.658 336.637,350.783 		"/>
	</g>
	<g>
		<polyline fill="none" stroke="#B700C2" stroke-width="2" stroke-miterlimit="10" points="385.816,44.264 385.816,35.442 
			399.227,35.442 399.227,25.723 411.241,25.723 411.241,18.848 		"/>
		<polyline fill="none" stroke="#B700C2" stroke-width="2" stroke-miterlimit="10" points="385.816,110.151 385.816,101.329 
			399.227,101.329 399.227,91.61 411.241,91.61 411.241,84.735 		"/>
		<polyline fill="none" stroke="#B700C2" stroke-width="2" stroke-miterlimit="10" points="385.816,176.898 385.816,168.076 
			399.227,168.076 399.227,158.357 411.241,158.357 411.241,151.482 		"/>
		<polyline fill="none" stroke="#B700C2" stroke-width="2" stroke-miterlimit="10" points="385.816,243.565 385.816,234.742 
			399.227,234.742 399.227,225.024 411.241,225.024 411.241,218.149 		"/>
		<polyline fill="none" stroke="#B700C2" stroke-width="2" stroke-miterlimit="10" points="385.816,309.452 385.816,300.629 
			399.227,300.629 399.227,290.911 411.241,290.911 411.241,284.036 		"/>
		<polyline fill="none" stroke="#B700C2" stroke-width="2" stroke-miterlimit="10" points="385.816,376.199 385.816,367.376 
			399.227,367.376 399.227,357.658 411.241,357.658 411.241,350.783 		"/>
	</g>
	<g>
		<polyline fill="none" stroke="#B700C2" stroke-width="2" stroke-miterlimit="10" points="460.42,44.264 460.42,35.442 
			473.831,35.442 473.831,25.723 485.844,25.723 485.844,18.848 		"/>
		<polyline fill="none" stroke="#B700C2" stroke-width="2" stroke-miterlimit="10" points="460.42,110.151 460.42,101.329 
			473.831,101.329 473.831,91.61 485.844,91.61 485.844,84.735 		"/>
		<polyline fill="none" stroke="#B700C2" stroke-width="2" stroke-miterlimit="10" points="460.42,176.898 460.42,168.076 
			473.831,168.076 473.831,158.357 485.844,158.357 485.844,151.482 		"/>
		<polyline fill="none" stroke="#B700C2" stroke-width="2" stroke-miterlimit="10" points="460.42,243.565 460.42,234.742 
			473.831,234.742 473.831,225.024 485.844,225.024 485.844,218.149 		"/>
		<polyline fill="none" stroke="#B700C2" stroke-width="2" stroke-miterlimit="10" points="460.42,309.452 460.42,300.629 
			473.831,300.629 473.831,290.911 485.844,290.911 485.844,284.036 		"/>
		<polyline fill="none" stroke="#B700C2" stroke-width="2" stroke-miterlimit="10" points="460.42,376.199 460.42,367.376 
			473.831,367.376 473.831,357.658 485.844,357.658 485.844,350.783 		"/>
	</g>
	<g>
		<polyline fill="none" stroke="#B700C2" stroke-width="2" stroke-miterlimit="10" points="535.023,44.264 535.023,35.442 
			548.434,35.442 548.434,25.723 560.448,25.723 560.448,18.848 		"/>
		<polyline fill="none" stroke="#B700C2" stroke-width="2" stroke-miterlimit="10" points="535.023,110.151 535.023,101.329 
			548.434,101.329 548.434,91.61 560.448,91.61 560.448,84.735 		"/>
		<polyline fill="none" stroke="#B700C2" stroke-width="2" stroke-miterlimit="10" points="535.023,176.898 535.023,168.076 
			548.434,168.076 548.434,158.357 560.448,158.357 560.448,151.482 		"/>
		<polyline fill="none" stroke="#B700C2" stroke-width="2" stroke-miterlimit="10" points="535.023,243.565 535.023,234.742 
			548.434,234.742 548.434,225.024 560.448,225.024 560.448,218.149 		"/>
		<polyline fill="none" stroke="#B700C2" stroke-width="2" stroke-miterlimit="10" points="535.023,309.452 535.023,300.629 
			548.434,300.629 548.434,290.911 560.448,290.911 560.448,284.036 		"/>
		<polyline fill="none" stroke="#B700C2" stroke-width="2" stroke-miterlimit="10" points="535.023,376.199 535.023,367.376 
			548.434,367.376 548.434,357.658 560.448,357.658 560.448,350.783 		"/>
	</g>
	<g>
		<polyline fill="none" stroke="#B700C2" stroke-width="2" stroke-miterlimit="10" points="609.626,44.264 609.626,35.442 
			623.037,35.442 623.037,25.723 635.051,25.723 635.051,18.848 		"/>
		<polyline fill="none" stroke="#B700C2" stroke-width="2" stroke-miterlimit="10" points="609.626,110.151 609.626,101.329 
			623.037,101.329 623.037,91.61 635.051,91.61 635.051,84.735 		"/>
		<polyline fill="none" stroke="#B700C2" stroke-width="2" stroke-miterlimit="10" points="609.626,176.898 609.626,168.076 
			623.037,168.076 623.037,158.357 635.051,158.357 635.051,151.482 		"/>
		<polyline fill="none" stroke="#B700C2" stroke-width="2" stroke-miterlimit="10" points="609.626,243.565 609.626,234.742 
			623.037,234.742 623.037,225.024 635.051,225.024 635.051,218.149 		"/>
		<polyline fill="none" stroke="#B700C2" stroke-width="2" stroke-miterlimit="10" points="609.626,309.452 609.626,300.629 
			623.037,300.629 623.037,290.911 635.051,290.911 635.051,284.036 		"/>
		<polyline fill="none" stroke="#B700C2" stroke-width="2" stroke-miterlimit="10" points="609.626,376.199 609.626,367.376 
			623.037,367.376 623.037,357.658 635.051,357.658 635.051,350.783 		"/>
	</g>
	<g>
		<polyline fill="none" stroke="#B700C2" stroke-width="2" stroke-miterlimit="10" points="684.23,44.264 684.23,35.442 
			697.641,35.442 697.641,25.723 709.655,25.723 709.655,18.848 		"/>
		<polyline fill="none" stroke="#B700C2" stroke-width="2" stroke-miterlimit="10" points="684.23,110.151 684.23,101.329 
			697.641,101.329 697.641,91.61 709.655,91.61 709.655,84.735 		"/>
		<polyline fill="none" stroke="#B700C2" stroke-width="2" stroke-miterlimit="10" points="684.23,176.898 684.23,168.076 
			697.641,168.076 697.641,158.357 709.655,158.357 709.655,151.482 		"/>
		<polyline fill="none" stroke="#B700C2" stroke-width="2" stroke-miterlimit="10" points="684.23,243.565 684.23,234.742 
			697.641,234.742 697.641,225.024 709.655,225.024 709.655,218.149 		"/>
		<polyline fill="none" stroke="#B700C2" stroke-width="2" stroke-miterlimit="10" points="684.23,309.452 684.23,300.629 
			697.641,300.629 697.641,290.911 709.655,290.911 709.655,284.036 		"/>
		<polyline fill="none" stroke="#B700C2" stroke-width="2" stroke-miterlimit="10" points="684.23,376.199 684.23,367.376 
			697.641,367.376 697.641,357.658 709.655,357.658 709.655,350.783 		"/>
	</g>
	<g>
		<polyline fill="none" stroke="#B700C2" stroke-width="2" stroke-miterlimit="10" points="758.833,44.264 758.833,35.442 
			772.244,35.442 772.244,25.723 784.258,25.723 784.258,18.848 		"/>
		<polyline fill="none" stroke="#B700C2" stroke-width="2" stroke-miterlimit="10" points="758.833,110.151 758.833,101.329 
			772.244,101.329 772.244,91.61 784.258,91.61 784.258,84.735 		"/>
		<polyline fill="none" stroke="#B700C2" stroke-width="2" stroke-miterlimit="10" points="758.833,176.898 758.833,168.076 
			772.244,168.076 772.244,158.357 784.258,158.357 784.258,151.482 		"/>
		<polyline fill="none" stroke="#B700C2" stroke-width="2" stroke-miterlimit="10" points="758.833,243.565 758.833,234.742 
			772.244,234.742 772.244,225.024 784.258,225.024 784.258,218.149 		"/>
		<polyline fill="none" stroke="#B700C2" stroke-width="2" stroke-miterlimit="10" points="758.833,309.452 758.833,300.629 
			772.244,300.629 772.244,290.911 784.258,290.911 784.258,284.036 		"/>
		<polyline fill="none" stroke="#B700C2" stroke-width="2" stroke-miterlimit="10" points="758.833,376.199 758.833,367.376 
			772.244,367.376 772.244,357.658 784.258,357.658 784.258,350.783 		"/>
	</g>
	<g>
		<polyline fill="none" stroke="#B700C2" stroke-width="2" stroke-miterlimit="10" points="833.437,44.264 833.437,35.442 
			846.848,35.442 846.848,25.723 858.861,25.723 858.861,18.848 		"/>
		<polyline fill="none" stroke="#B700C2" stroke-width="2" stroke-miterlimit="10" points="833.437,110.151 833.437,101.329 
			846.848,101.329 846.848,91.61 858.861,91.61 858.861,84.735 		"/>
		<polyline fill="none" stroke="#B700C2" stroke-width="2" stroke-miterlimit="10" points="833.437,176.898 833.437,168.076 
			846.848,168.076 846.848,158.357 858.861,158.357 858.861,151.482 		"/>
		<polyline fill="none" stroke="#B700C2" stroke-width="2" stroke-miterlimit="10" points="833.437,243.565 833.437,234.742 
			846.848,234.742 846.848,225.024 858.861,225.024 858.861,218.149 		"/>
		<polyline fill="none" stroke="#B700C2" stroke-width="2" stroke-miterlimit="10" points="833.437,309.452 833.437,300.629 
			846.848,300.629 846.848,290.911 858.861,290.911 858.861,284.036 		"/>
		<polyline fill="none" stroke="#B700C2" stroke-width="2" stroke-miterlimit="10" points="833.437,376.199 833.437,367.376 
			846.848,367.376 846.848,357.658 858.861,357.658 858.861,350.783 		"/>
	</g>
	<g>
		<polyline fill="none" stroke="#B700C2" stroke-width="2" stroke-miterlimit="10" points="908.04,44.264 908.04,35.442 
			921.451,35.442 921.451,25.723 933.465,25.723 933.465,18.848 		"/>
		<polyline fill="none" stroke="#B700C2" stroke-width="2" stroke-miterlimit="10" points="908.04,110.151 908.04,101.329 
			921.451,101.329 921.451,91.61 933.465,91.61 933.465,84.735 		"/>
		<polyline fill="none" stroke="#B700C2" stroke-width="2" stroke-miterlimit="10" points="908.04,176.898 908.04,168.076 
			921.451,168.076 921.451,158.357 933.465,158.357 933.465,151.482 		"/>
		<polyline fill="none" stroke="#B700C2" stroke-width="2" stroke-miterlimit="10" points="908.04,243.565 908.04,234.742 
			921.451,234.742 921.451,225.024 933.465,225.024 933.465,218.149 		"/>
		<polyline fill="none" stroke="#B700C2" stroke-width="2" stroke-miterlimit="10" points="908.04,309.452 908.04,300.629 
			921.451,300.629 921.451,290.911 933.465,290.911 933.465,284.036 		"/>
		<polyline fill="none" stroke="#B700C2" stroke-width="2" stroke-miterlimit="10" points="908.04,376.199 908.04,367.376 
			921.451,367.376 921.451,357.658 933.465,357.658 933.465,350.783 		"/>
	</g>
	<g>
		<g>
			<polyline fill="none" stroke="#B700C2" stroke-width="2" stroke-miterlimit="10" points="982.643,44.264 982.643,35.442 
				996.055,35.442 996.055,25.723 1008.068,25.723 1008.068,18.848 			"/>
		</g>
		<g>
			<polyline fill="none" stroke="#B700C2" stroke-width="2" stroke-miterlimit="10" points="982.643,110.151 982.643,101.329 
				996.055,101.329 996.055,91.61 1008.068,91.61 1008.068,84.735 			"/>
		</g>
		<g>
			<polyline fill="none" stroke="#B700C2" stroke-width="2" stroke-miterlimit="10" points="982.643,176.898 982.643,168.076 
				996.055,168.076 996.055,158.357 1008.068,158.357 1008.068,151.482 			"/>
		</g>
		<g>
			<g>
				<polyline fill="none" stroke="#B700C2" stroke-width="2" stroke-miterlimit="10" points="982.643,243.565 982.643,234.742 
					996.055,234.742 996.055,225.024 1008.068,225.024 1008.068,218.149 				"/>
			</g>
			<g>
				<polyline fill="none" stroke="#B700C2" stroke-width="2" stroke-miterlimit="10" points="982.643,309.452 982.643,300.629 
					996.055,300.629 996.055,290.911 1008.068,290.911 1008.068,284.036 				"/>
			</g>
			<g>
				<polyline fill="none" stroke="#B700C2" stroke-width="2" stroke-miterlimit="10" points="982.643,376.199 982.643,367.376 
					996.055,367.376 996.055,357.658 1008.068,357.658 1008.068,350.783 				"/>
			</g>
		</g>
	</g>
	<g>
		<polyline fill="none" stroke="#B700C2" stroke-width="2" stroke-miterlimit="10" points="1057.247,44.264 1057.247,35.442 
			1070.658,35.442 1070.658,25.723 1082.672,25.723 1082.672,18.848 		"/>
		<polyline fill="none" stroke="#B700C2" stroke-width="2" stroke-miterlimit="10" points="1057.247,110.151 1057.247,101.329 
			1070.658,101.329 1070.658,91.61 1082.672,91.61 1082.672,84.735 		"/>
		<polyline fill="none" stroke="#B700C2" stroke-width="2" stroke-miterlimit="10" points="1057.247,176.898 1057.247,168.076 
			1070.658,168.076 1070.658,158.357 1082.672,158.357 1082.672,151.482 		"/>
		<polyline fill="none" stroke="#B700C2" stroke-width="2" stroke-miterlimit="10" points="1057.247,243.565 1057.247,234.742 
			1070.658,234.742 1070.658,225.024 1082.672,225.024 1082.672,218.149 		"/>
		<polyline fill="none" stroke="#B700C2" stroke-width="2" stroke-miterlimit="10" points="1057.247,309.452 1057.247,300.629 
			1070.658,300.629 1070.658,290.911 1082.672,290.911 1082.672,284.036 		"/>
		<polyline fill="none" stroke="#B700C2" stroke-width="2" stroke-miterlimit="10" points="1057.247,376.199 1057.247,367.376 
			1070.658,367.376 1070.658,357.658 1082.672,357.658 1082.672,350.783 		"/>
	</g>
	<g>
		<polyline fill="none" stroke="#B700C2" stroke-width="2" stroke-miterlimit="10" points="1131.85,44.264 1131.85,35.442 
			1145.261,35.442 1145.261,25.723 1157.275,25.723 1157.275,18.848 		"/>
		<polyline fill="none" stroke="#B700C2" stroke-width="2" stroke-miterlimit="10" points="1131.85,110.151 1131.85,101.329 
			1145.261,101.329 1145.261,91.61 1157.275,91.61 1157.275,84.735 		"/>
		<polyline fill="none" stroke="#B700C2" stroke-width="2" stroke-miterlimit="10" points="1131.85,176.898 1131.85,168.076 
			1145.261,168.076 1145.261,158.357 1157.275,158.357 1157.275,151.482 		"/>
		<polyline fill="none" stroke="#B700C2" stroke-width="2" stroke-miterlimit="10" points="1131.85,243.565 1131.85,234.742 
			1145.261,234.742 1145.261,225.024 1157.275,225.024 1157.275,218.149 		"/>
		<polyline fill="none" stroke="#B700C2" stroke-width="2" stroke-miterlimit="10" points="1131.85,309.452 1131.85,300.629 
			1145.261,300.629 1145.261,290.911 1157.275,290.911 1157.275,284.036 		"/>
		<polyline fill="none" stroke="#B700C2" stroke-width="2" stroke-miterlimit="10" points="1131.85,376.199 1131.85,367.376 
			1145.261,367.376 1145.261,357.658 1157.275,357.658 1157.275,350.783 		"/>
	</g>
</g>
</svg>
