<?xml version="1.0" encoding="utf-8"?>
<!-- Generator: Adobe Illustrator 17.0.0, SVG Export Plug-In . SVG Version: 6.00 Build 0)  -->
<!DOCTYPE svg PUBLIC "-//W3C//DTD SVG 1.1//EN" "http://www.w3.org/Graphics/SVG/1.1/DTD/svg11.dtd">
<svg version="1.1" id="Layer_1" xmlns="http://www.w3.org/2000/svg" xmlns:xlink="http://www.w3.org/1999/xlink" x="0px" y="0px"
	 width="15.8px" height="16.333px" viewBox="0 0 15.8 16.333" enable-background="new 0 0 15.8 16.333" xml:space="preserve">
<path d="M10.689,1.25c0.336,0.315,0.368,0.315,0.574,0.03c0.116,0.019,0.228,0.039,0.339,0.055c0.279,0.039,0.39,0.12,0.404,0.299
	c0.019,0.24-0.18,0.529-0.414,0.556c-0.27,0.031-0.545,0.05-0.816,0.038C10.3,2.207,9.829,2.161,9.355,2.303
	C9.137,2.369,8.891,2.333,8.658,2.348C8.531,2.356,8.439,2.391,8.335,2.512c-0.132,0.154-0.358,0.22-0.58,0.344
	C7.73,2.665,7.713,2.536,7.693,2.384C7.46,2.34,7.221,2.289,6.981,2.251C6.745,2.214,6.528,2.258,6.309,2.383
	C6.157,2.47,5.947,2.544,5.791,2.504C5.37,2.396,4.978,2.561,4.573,2.577c-0.49,0.02-0.979,0.062-1.468,0.098
	C3.004,2.683,2.903,2.702,2.751,2.723C2.71,4.285,2.757,5.822,3.084,7.387C3.301,7.33,3.49,7.296,3.668,7.231
	c0.593-0.217,1.216-0.228,1.828-0.32c0.049-0.007,0.102,0.001,0.146-0.018c0.306-0.13,0.61-0.266,0.931-0.408
	C6.554,6.364,6.527,6.194,6.5,6.023C6.459,5.751,6.485,5.54,6.685,5.291c0.249-0.31,0.371-0.735,0.539-1.114
	c0.069-0.156,0.113-0.324,0.183-0.53c-0.172-0.108-0.353-0.223-0.538-0.34c0.403-0.301,0.405-0.304,0.747,0.009
	c0.143,0.131,0.292,0.263,0.406,0.42c0.072,0.1,0.123,0.25,0.117,0.374C8.128,4.355,8.224,4.547,8.382,4.682
	C8.69,4.944,8.807,5.249,8.689,5.65c-0.026,0.09-0.034,0.187-0.048,0.281C8.61,6.153,8.721,6.3,8.915,6.244
	C9.166,6.171,9.393,6.17,9.628,6.296c0.056,0.03,0.166,0.015,0.218-0.025c0.179-0.142,0.342-0.072,0.499,0.017
	c0.351-0.237,0.72-0.338,1.107-0.327c0.317,0.554,0.421,1.076-0.047,1.578c0.083,0.119,0.149,0.214,0.239,0.342
	c-0.372,0.446-0.922,0.564-1.395,0.874c-0.04-0.089-0.057-0.172-0.105-0.223c-0.066-0.07-0.154-0.162-0.234-0.163
	c-0.35-0.004-0.7,0.015-1.049,0.037C8.527,8.426,8.496,8.537,8.54,8.883c0.098,0.788,0.349,1.562,0.223,2.376
	c-0.02,0.128,0.035,0.268,0.041,0.403c0.009,0.176,0.012,0.352,0.004,0.528c-0.007,0.164-0.123,0.231-0.257,0.265
	c-0.144,0.037-0.607-0.179-0.671-0.319c-0.145-0.317-0.289-0.635-0.423-0.957c-0.115-0.277-0.159-0.555,0.103-0.803
	c-0.061-0.114-0.109-0.224-0.174-0.322C7.265,9.871,7.189,9.696,7.221,9.45C7.25,9.232,7.191,8.998,7.151,8.775
	C7.12,8.605,6.863,8.41,6.687,8.416C6.004,8.439,5.318,8.331,4.637,8.53C4.332,8.619,3.995,8.585,3.672,8.607
	C3.545,8.616,3.417,8.624,3.266,8.634c0,0.121-0.001,0.212,0,0.302c0.008,0.394,0.009,0.788,0.026,1.181
	c0.041,0.967,0.095,1.934,0.13,2.901c0.009,0.257,0.14,0.436,0.328,0.512c0.372,0.151,0.759,0.315,1.15,0.35
	c0.72,0.063,1.447,0.035,2.171,0.049c0.478,0.009,0.955,0.028,1.433,0.036c0.44,0.007,0.88,0.003,1.32,0.009
	c0.115,0.002,0.231,0.018,0.345,0.035c0.449,0.065,0.898,0.125,1.345,0.202c0.255,0.043,0.503,0.126,0.758,0.17
	c0.239,0.042,0.483,0.057,0.756,0.087c0-0.38,0.073-0.726-0.062-1.068c-0.028-0.071-0.054-0.179-0.023-0.235
	c0.123-0.227,0.073-0.455,0.084-0.693c0.014-0.326-0.039-0.59-0.13-0.9c-0.166-0.565-0.226-1.168-0.116-1.771
	c0.063-0.348-0.032-0.673-0.156-0.996c-0.184-0.478-0.313-0.963-0.256-1.498c0.036-0.334,0.004-0.677-0.173-0.99
	c-0.096-0.17-0.194-0.37-0.01-0.586c-0.251-0.144-0.328-0.366-0.35-0.616c-0.017-0.197,0.072-0.295,0.25-0.244
	c0.154,0.044,0.296,0.134,0.445,0.202c0.046,0.021,0.093,0.044,0.141,0.052c0.355,0.062,0.358,0.067,0.435,0.432
	c0.047,0.224,0.104,0.446,0.157,0.669c-0.036,0.01-0.081,0.022-0.127,0.035c0.011,0.037,0.012,0.074,0.027,0.084
	c0.238,0.147,0.31,0.368,0.329,0.651c0.037,0.551,0.1,1.1,0.176,1.648c0.063,0.455,0.028,0.923,0.063,1.384
	c0.018,0.239,0.098,0.473,0.141,0.711c0.031,0.173,0.061,0.348,0.069,0.523c0.028,0.646-0.006,1.298,0.152,1.933
	c0.009,0.036-0.01,0.079-0.018,0.131c-0.078,0.027-0.156,0.054-0.241,0.084c0.017,0.059,0.016,0.116,0.04,0.131
	c0.244,0.154,0.301,0.384,0.277,0.665c-0.008,0.087,0.052,0.179,0.07,0.271c0.02,0.106,0.071,0.24,0.032,0.318
	c-0.11,0.218-0.201,0.408-0.098,0.672c0.045,0.116-0.109,0.205-0.242,0.186c-0.55-0.076-1.108-0.117-1.645-0.253
	c-0.336-0.085-0.639-0.316-1.01-0.51c-0.281,0.035-0.636,0.08-0.992,0.123c-0.051,0.006-0.111,0.021-0.154,0.001
	c-0.368-0.176-0.761-0.046-1.136-0.112c-0.123-0.022-0.24-0.081-0.366-0.125c-0.419,0.259-0.876,0.139-1.299,0.034
	c-0.322-0.08-0.647-0.112-0.954-0.087c-0.611,0.05-1.203,0.04-1.811-0.072c-0.502-0.092-0.929-0.277-1.301-0.63
	c-0.019-0.018-0.043-0.037-0.067-0.04c-0.479-0.058-0.557-0.455-0.652-0.843c-0.109-0.442-0.227-0.882-0.348-1.349
	c0.09-0.037,0.156-0.064,0.263-0.109c-0.041-0.281-0.093-0.581-0.127-0.883c-0.022-0.203-0.017-0.409-0.024-0.613
	c-0.006-0.178,0.022-0.365-0.023-0.53C2.2,9.404,2.251,9.203,2.418,9.012c-0.23-0.468-0.243-0.97-0.274-1.473
	C2.118,7.136,2.05,6.735,2.003,6.333c-0.02-0.176-0.061-0.355-0.045-0.527c0.02-0.209-0.019-0.372-0.142-0.459
	c0.033-0.189,0.061-0.336,0.085-0.483c0.009-0.053,0-0.11,0.014-0.161C1.941,4.599,1.93,4.092,1.89,3.999
	C1.815,3.825,1.765,3.658,1.806,3.452c0.033-0.164-0.01-0.349-0.041-0.521C1.721,2.683,1.68,2.453,1.93,2.281
	c0.078-0.053,0.103-0.185,0.166-0.269C2.243,1.817,2.404,1.787,2.584,1.96C2.747,2.117,2.918,2.048,3.05,1.984
	c0.169-0.081,0.34-0.218,0.44-0.38C3.617,1.4,3.775,1.341,3.978,1.338C4.056,1.337,4.134,1.346,4.212,1.35
	c0.75,0.037,1.501,0.099,2.251,0.098c0.295,0,0.593-0.133,0.885-0.224c0.163-0.051,0.31-0.116,0.488-0.046
	c0.072,0.029,0.174-0.013,0.259-0.035c0.282-0.072,0.552-0.093,0.837,0.034c0.137,0.061,0.332,0.046,0.48-0.003
	c0.196-0.065,0.371-0.08,0.55,0.023C10.188,1.328,10.422,1.361,10.689,1.25z"/>
</svg>
