<?xml version="1.0" encoding="utf-8"?>
<!-- Generator: Adobe Illustrator 17.0.0, SVG Export Plug-In . SVG Version: 6.00 Build 0)  -->
<!DOCTYPE svg PUBLIC "-//W3C//DTD SVG 1.1//EN" "http://www.w3.org/Graphics/SVG/1.1/DTD/svg11.dtd">
<svg version="1.1" id="Layer_1" xmlns="http://www.w3.org/2000/svg" xmlns:xlink="http://www.w3.org/1999/xlink" x="0px" y="0px"
	 width="41px" height="27.118px" viewBox="0 0 41 27.118" enable-background="new 0 0 41 27.118" xml:space="preserve">
<g>
	<g>
		<polygon fill="#B3B3B3" points="14.111,13.08 9.505,17.53 0,26.43 0,0.16 		"/>
		<polygon fill="#B3B3B3" points="38.272,27.118 2.472,27.118 10.842,19.139 15.562,14.509 20.372,18.86 25.142,14.519 		"/>
		<polygon fill="#B3B3B3" points="41,0 41,26.57 26.631,12.96 31.276,8.61 		"/>
	</g>
	<g>
		<polygon fill="#B3B3B3" points="38.272,27.118 2.472,27.118 10.842,19.139 15.562,14.509 20.372,18.86 25.142,14.519 		"/>
	</g>
	<g>
		<polygon fill="#B3B3B3" points="38.152,0.118 29.892,7.289 25.152,11.669 24.422,12.309 23.692,12.98 20.352,16.11 17.002,13.045 
			16.262,12.372 15.522,11.85 2.512,0.118 		"/>
	</g>
</g>
</svg>
