<?xml version="1.0" encoding="utf-8"?>
<!-- Generator: Adobe Illustrator 17.0.0, SVG Export Plug-In . SVG Version: 6.00 Build 0)  -->
<!DOCTYPE svg PUBLIC "-//W3C//DTD SVG 1.1//EN" "http://www.w3.org/Graphics/SVG/1.1/DTD/svg11.dtd">
<svg version="1.1" id="Layer_1" xmlns="http://www.w3.org/2000/svg" xmlns:xlink="http://www.w3.org/1999/xlink" x="0px" y="0px"
	 width="25px" height="29px" viewBox="0 0 25 29" enable-background="new 0 0 25 29" xml:space="preserve">
<polygon fill="#B3B3B3" points="20.99,-0.042 25,4 21,4 "/>
<g>
	<g>
		<polygon fill="#B3B3B3" points="25,6 25,29 0,29 0,0 19,0 19,6 		"/>
	</g>
	<g>
		<path fill="#FFFFFF" d="M3.816,11.512h2.5c0.349,0,0.679,0.032,0.989,0.095c0.311,0.063,0.582,0.173,0.813,0.328
			c0.231,0.155,0.415,0.365,0.552,0.627c0.136,0.263,0.204,0.594,0.204,0.994c0,0.393-0.063,0.723-0.19,0.989
			s-0.301,0.479-0.523,0.637c-0.221,0.159-0.484,0.271-0.789,0.338c-0.304,0.067-0.634,0.1-0.989,0.1H5.299v2.624H3.816V11.512z
			 M5.299,14.364h0.989c0.133,0,0.262-0.013,0.385-0.038c0.124-0.025,0.234-0.068,0.333-0.128c0.098-0.06,0.178-0.143,0.238-0.247
			c0.06-0.105,0.09-0.236,0.09-0.395c0-0.171-0.039-0.309-0.118-0.414c-0.08-0.105-0.181-0.185-0.305-0.242
			c-0.123-0.057-0.261-0.093-0.413-0.109c-0.152-0.016-0.298-0.024-0.437-0.024H5.299V14.364z"/>
		<path fill="#FFFFFF" d="M9.805,11.512h2.224c0.539,0,1.051,0.06,1.536,0.181c0.484,0.12,0.908,0.315,1.269,0.585
			c0.361,0.269,0.648,0.62,0.86,1.051c0.213,0.431,0.319,0.954,0.319,1.569c0,0.545-0.103,1.025-0.309,1.44
			c-0.206,0.415-0.483,0.764-0.832,1.046c-0.348,0.282-0.751,0.496-1.207,0.642c-0.456,0.146-0.935,0.219-1.436,0.219H9.805V11.512z
			 M11.288,16.874h0.77c0.342,0,0.661-0.035,0.956-0.105c0.295-0.07,0.55-0.185,0.765-0.347c0.216-0.162,0.385-0.374,0.509-0.637
			c0.123-0.263,0.185-0.585,0.185-0.965c0-0.329-0.062-0.616-0.185-0.86c-0.124-0.244-0.29-0.445-0.5-0.604
			c-0.209-0.158-0.454-0.277-0.737-0.357c-0.282-0.079-0.579-0.119-0.889-0.119h-0.874V16.874z"/>
		<path fill="#FFFFFF" d="M17.077,11.512h4.516v1.369h-3.033v1.369h2.805v1.369h-2.805v2.624h-1.483V11.512z"/>
	</g>
</g>
</svg>
