<?xml version="1.0" encoding="utf-8"?>
<!-- Generator: Adobe Illustrator 17.0.0, SVG Export Plug-In . SVG Version: 6.00 Build 0)  -->
<!DOCTYPE svg PUBLIC "-//W3C//DTD SVG 1.1//EN" "http://www.w3.org/Graphics/SVG/1.1/DTD/svg11.dtd">
<svg version="1.1" id="Layer_1" xmlns="http://www.w3.org/2000/svg" xmlns:xlink="http://www.w3.org/1999/xlink" x="0px" y="0px"
	 width="39px" height="35.59px" viewBox="0 0 39 35.59" enable-background="new 0 0 39 35.59" xml:space="preserve">
<g>
	<path fill="#F93732" d="M29.25,17.71L19.5,0L9.75,17.84L0,35.59h39L29.25,17.71z M21.75,29.771c-0.11,0.27-0.27,0.5-0.46,0.7
		c-0.2,0.19-0.43,0.35-0.7,0.46c-0.27,0.11-0.55,0.16-0.85,0.16c-0.3,0-0.58-0.05-0.85-0.16c-0.27-0.11-0.5-0.27-0.7-0.46
		c-0.2-0.2-0.35-0.43-0.46-0.7s-0.17-0.55-0.17-0.85s0.06-0.58,0.17-0.85s0.26-0.5,0.46-0.7c0.2-0.2,0.43-0.35,0.7-0.46
		c0.27-0.11,0.55-0.17,0.85-0.17c0.3,0,0.58,0.06,0.85,0.17c0.27,0.11,0.5,0.26,0.7,0.46c0.19,0.2,0.35,0.43,0.46,0.7
		c0.11,0.27,0.16,0.55,0.16,0.85S21.86,29.501,21.75,29.771z M21.933,25.59h-4v-12h4V25.59z"/>
</g>
</svg>
