<?xml version="1.0" encoding="utf-8"?>
<!-- Generator: Adobe Illustrator 17.0.0, SVG Export Plug-In . SVG Version: 6.00 Build 0)  -->
<!DOCTYPE svg PUBLIC "-//W3C//DTD SVG 1.1//EN" "http://www.w3.org/Graphics/SVG/1.1/DTD/svg11.dtd">
<svg version="1.1" id="Layer_1" xmlns="http://www.w3.org/2000/svg" xmlns:xlink="http://www.w3.org/1999/xlink" x="0px" y="0px"
	 width="23px" height="23px" viewBox="0 0 23 23" enable-background="new 0 0 23 23" xml:space="preserve">
<g id="qTN4cz_3_">
	<g>
		<path fill="#B3B3B3" d="M22.995,22.989c-1.583,0-3.116,0-4.758,0c-0.118-4.94-1.829-9.267-5.318-12.792
			C9.419,6.662,5.122,4.904,0.108,4.778c0-1.601,0-3.179,0-4.757C11.728-0.536,23.282,9.957,22.995,22.989z"/>
		<path fill="#B3B3B3" d="M15.525,22.993c-1.612,0-3.168,0-4.731,0C10.097,16.525,6.536,12.958,0.086,12.24c0-1.542,0-3.103,0-4.662
			C7.103,7.051,15.589,13.457,15.525,22.993z"/>
		<path fill="#B3B3B3" d="M0,19.716c0.025-1.79,1.471-3.189,3.262-3.157c1.811,0.033,3.17,1.449,3.14,3.271
			C6.372,21.61,4.971,23.008,3.225,23C1.407,22.992-0.025,21.534,0,19.716z"/>
	</g>
</g>
</svg>
