<?xml version="1.0" encoding="utf-8"?>
<!-- Generator: Adobe Illustrator 17.0.0, SVG Export Plug-In . SVG Version: 6.00 Build 0)  -->
<!DOCTYPE svg PUBLIC "-//W3C//DTD SVG 1.1//EN" "http://www.w3.org/Graphics/SVG/1.1/DTD/svg11.dtd">
<svg version="1.1" id="Layer_1" xmlns="http://www.w3.org/2000/svg" xmlns:xlink="http://www.w3.org/1999/xlink" x="0px" y="0px"
	 width="21.25px" height="23.615px" viewBox="0 0 21.25 23.615" enable-background="new 0 0 21.25 23.615" xml:space="preserve">
<path fill="#FFFFFF" d="M19.328,19.031c0.111,0.075,0.18,0.121,0.285,0.192c-0.067,0.074-0.136,0.15-0.223,0.246
	c0.076,0.095,0.157,0.197,0.212,0.266c-0.146,0.341-0.28,0.654-0.429,1.004c-0.266-0.041-0.553-0.085-0.965-0.149
	c0.203,0.289,0.341,0.487,0.501,0.714c-0.17,0.09-0.338,0.174-0.499,0.265c-0.069,0.039-0.148,0.085-0.183,0.142
	c-0.224,0.362-0.526,0.602-0.861,0.714c-0.345,0.115-0.638,0.17-0.88-0.147c-0.084-0.11-0.291-0.164-0.448-0.236
	c-0.168-0.077-0.331-0.111-0.436-0.296c-0.084-0.147-0.412-0.242-0.654-0.293c-0.564-0.12-0.57-0.103-0.474-0.59
	c-0.365-0.059-0.55-0.257-0.59-0.554c-0.014-0.102-0.064-0.208-0.132-0.296c-0.344-0.444-0.339-0.508,0.131-0.946
	c0.139-0.129,0.098-0.507-0.145-0.632c-0.395-0.203-0.68-0.406-0.574-0.824c0.019-0.076-0.163-0.205-0.284-0.278
	c-1.1-0.671-2.214-1.32-3.429-1.865c-0.788-0.354-1.501-0.81-2.249-1.218c-0.224-0.122-0.437-0.271-0.685-0.35
	c-0.193-0.061-0.469-0.098-0.642-0.034c-0.587,0.217-1.062,0.001-1.553-0.181c-0.371-0.137-0.718-0.354-1.105-0.412
	c-0.739-0.11-1.092-0.563-1.545-0.932c-0.096-0.078-0.132-0.23-0.131-0.348c0.006-0.446-0.276-0.913,0.138-1.333
	c-0.319-0.983,0.923-1.287,1.363-1.94c0.438-0.112,0.87-0.244,1.316-0.331C4.86,8.254,5.522,8.32,6.234,8.503
	c0.713,0.183,1.239,0.59,2.054,0.761C8.479,9.081,8.747,8.85,8.978,8.597c0.767-0.837,1.521-1.681,2.42-2.435
	c0.2-0.168,0.43-0.313,0.647-0.467c0.151-0.107,0.317-0.204,0.454-0.321c0.355-0.302,0.689-0.621,1.051-0.918
	c0.196-0.161,0.254-0.312,0.178-0.533c-0.102-0.296-0.186-0.604-0.206-0.909c-0.028-0.423,0.213-0.795,0.487-1.148
	c0.171-0.22,0.365-0.429,0.573-0.671c0.082,0.032,0.2,0.078,0.344,0.134c0.023-0.041,0.053-0.08,0.066-0.123
	c0.141-0.467,0.426-0.577,0.951-0.378c0.139,0.053,0.298,0.083,0.452,0.096c1.516,0.127,2.669,1.048,3.014,2.06
	c0.087,0.256,0.109,0.526,0.17,0.788c0.037,0.158,0.033,0.357,0.154,0.463c0.4,0.349,0.016,0.696,0.034,1.039
	c0.005,0.088-0.168,0.207-0.294,0.268c-0.306,0.147-0.627,0.277-0.952,0.398c-0.351,0.131-0.714,0.201-1.087,0.037
	c-0.059-0.026-0.126-0.073-0.181-0.067c-0.615,0.069-1.101-0.163-1.597-0.473c-0.272,0.414-0.63,0.497-1.135,0.338
	c-0.288-0.09-0.574,0.026-0.78,0.234c-1.002,1.012-2.192,1.901-3.106,2.972c-0.34,0.399-0.759,0.756-1.121,1.144
	c-0.267,0.286-0.399,0.591-0.183,0.956c0.074,0.125,0.04,0.318-0.021,0.46c-0.186,0.437-0.409,0.864-0.651,1.363
	c0.553-0.214,0.819,0.067,1.162,0.3c0.638,0.433,1.345,0.801,2.008,1.213c0.679,0.422,1.34,0.862,2.008,1.294
	c0.14,0.091,0.278,0.184,0.417,0.276c0.338,0.223,0.694,0.213,1.092,0.094c0.588-0.175,1.192-0.358,1.834-0.268
	c1.031,0.143,1.91,0.465,2.221,1.35c0.036,0.103,0.123,0.23,0.079,0.311c-0.156,0.292,0.029,0.509,0.169,0.756
	C19.854,18.589,19.785,18.717,19.328,19.031z M11.985,15.744c-0.24-0.231-0.437-0.507-0.729-0.686
	c-0.879-0.538-1.794-1.04-2.696-1.554c-0.401-0.228-0.693-0.194-1.072,0.12c0.617,0.311,1.349,0.49,1.799,0.992
	c0.073,0.081,0.224,0.117,0.328,0.184c0.542,0.349,1.291,0.399,1.813,0.787c0.132,0.098,0.381,0.099,0.578,0.143
	c0.065,0.13,0.129,0.26,0.19,0.383c0.664,0.141,1.099,0.406,0.916,0.552c-0.082-0.003-0.164-0.007-0.369-0.015
	c0.421,0.402,0.852,0.225,1.27,0.185c-0.178-0.167-0.383-0.294-0.587-0.422c-0.157-0.098-0.368-0.171-0.461-0.297
	C12.734,15.807,12.399,15.725,11.985,15.744z M2.712,10.322c-0.52,0.725-0.346,1.663,0.301,2.175
	c0.258,0.204,0.407,0.124,0.587-0.024C3.27,11.743,2.61,11.134,2.712,10.322z M4.613,9.914c0.035,0.011,0.088,0.037,0.096,0.03
	c0.16-0.141,0.314-0.287,0.511-0.469C4.717,9.428,4.646,9.655,4.613,9.914z"/>
</svg>
